<svg width="20" height="20" viewBox="0 0 20 20" fill="none" xmlns="http://www.w3.org/2000/svg">
<path id="Vector" d="M4.74088 13.6778C5.48735 14.305 6.40031 14.6229 7.2988 14.7951C7.21664 14.9739 7.14881 15.1727 7.09929 15.391C6.8564 15.4695 6.55044 15.5337 6.24072 15.5069C5.84813 15.4728 5.41342 15.2922 5.06395 14.6816L5.06317 14.6802L5.05531 14.6666C5.04896 14.6558 5.04039 14.6415 5.02961 14.6242C5.00807 14.5896 4.97749 14.5428 4.93791 14.4876C4.85922 14.3778 4.74242 14.2314 4.58739 14.0816C4.28093 13.7856 3.79357 13.4473 3.13491 13.4012L3.12257 13.4004L3.1102 13.4001L3.1 13.9C3.1102 13.4001 3.11005 13.4001 3.10989 13.4001L3.10955 13.4001L3.10881 13.4001L3.10704 13.4L3.1024 13.4L3.08887 13.3999C3.07807 13.3999 3.06366 13.4001 3.0464 13.4005C3.01233 13.4014 2.96494 13.4037 2.91104 13.4091C2.82323 13.4179 2.64208 13.4414 2.48199 13.5298C2.39694 13.5768 2.26944 13.6686 2.19566 13.8339C2.11447 14.0158 2.1368 14.1983 2.19655 14.3395C2.25089 14.4679 2.33849 14.5721 2.42268 14.6542C2.5106 14.7399 2.61998 14.8257 2.74847 14.9132L2.78016 14.9348L2.8074 14.9478C2.80799 14.9481 2.80868 14.9485 2.80949 14.949C2.81654 14.953 2.8319 14.9622 2.85405 14.9776C2.89827 15.0082 2.96992 15.0635 3.05695 15.1516C3.22829 15.3248 3.46588 15.6316 3.66981 16.1408C3.67165 16.1462 3.67376 16.1523 3.67617 16.1591C3.6839 16.1808 3.69469 16.2095 3.709 16.244C3.73755 16.3127 3.78044 16.4053 3.84137 16.5119C3.96287 16.7244 4.15933 16.9985 4.46183 17.2497C4.99988 17.6965 5.8162 18.0241 7 17.8976V19C7 19.0046 6.99983 19.0088 6.99955 19.0127C6.98811 19.013 6.97317 19.0127 6.95434 19.0109C3.20444 17.7338 0.5 14.1815 0.5 10C0.5 7.48044 1.50089 5.06408 3.28249 3.28249C4.16464 2.40033 5.21191 1.70056 6.36451 1.22314C7.5171 0.745725 8.75244 0.5 10 0.5C11.2476 0.5 12.4829 0.745725 13.6355 1.22314C14.7881 1.70056 15.8354 2.40033 16.7175 3.28249C17.5997 4.16464 18.2994 5.21191 18.7769 6.36451C19.2543 7.5171 19.5 8.75244 19.5 10C19.5 14.1829 16.8035 17.7269 13.0507 19.0125C13.0296 19.015 13.0131 19.0156 13.0007 19.0155C13.0003 19.0108 13 19.0056 13 19V16.26C13 15.6754 12.8836 15.1804 12.6954 14.7838C13.5929 14.613 14.5048 14.2991 15.2511 13.6781C16.2553 12.8424 16.88 11.5204 16.88 9.5C16.88 8.37707 16.5271 7.44117 15.9135 6.67902C16.0578 6.16292 16.2042 5.16703 15.713 3.96135L15.625 3.74536L15.403 3.67399L15.25 4.15C15.403 3.67399 15.4025 3.67383 15.402 3.67368L15.4011 3.67336L15.399 3.67272L15.3947 3.67139L15.3851 3.66856C15.3782 3.6666 15.3705 3.66451 15.3619 3.66235C15.3447 3.65802 15.324 3.65342 15.2998 3.64901C15.2513 3.64018 15.189 3.63216 15.1126 3.62853C14.9596 3.62126 14.7525 3.63176 14.489 3.68682C13.9969 3.78962 13.3118 4.04682 12.4111 4.6294C11.6373 4.43576 10.8129 4.34 10 4.34C9.18712 4.34 8.36267 4.43576 7.5889 4.6294C6.68821 4.04682 6.00308 3.78962 5.511 3.68682C5.24747 3.63176 5.04044 3.62126 4.88738 3.62853C4.81101 3.63216 4.74873 3.64018 4.70022 3.64901C4.676 3.65342 4.6553 3.65802 4.63808 3.66235C4.62948 3.66451 4.62176 3.6666 4.61491 3.66856L4.60529 3.67139L4.60098 3.67272L4.59895 3.67336L4.59796 3.67368C4.59748 3.67383 4.597 3.67399 4.75 4.15L4.597 3.67399L4.37495 3.74536L4.28695 3.96135C3.79575 5.16703 3.9422 6.16292 4.08646 6.67902C3.47285 7.44117 3.12 8.37707 3.12 9.5C3.12 11.5151 3.74187 12.8385 4.74088 13.6778Z" fill="#8C8B89" stroke="#8C8B89"/>
</svg>
