<svg width="23" height="23" viewBox="0 0 23 23" fill="none" xmlns="http://www.w3.org/2000/svg">
<g id="Vector">
<mask id="path-1-outside-1_801_491" maskUnits="userSpaceOnUse" x="0.5" y="0.5" width="22" height="22" fill="black">
<rect fill="white" x="0.5" y="0.5" width="22" height="22"/>
<path d="M4 9H3.5C2.557 9 2.086 9 1.793 9.293C1.5 9.586 1.5 10.057 1.5 11V19.5C1.5 20.443 1.5 20.914 1.793 21.207C2.086 21.5 2.557 21.5 3.5 21.5H4C4.943 21.5 5.414 21.5 5.707 21.207C6 20.914 6 20.443 6 19.5V11C6 10.057 6 9.586 5.707 9.293C5.414 9 4.943 9 4 9ZM6 3.75C6 4.34674 5.76295 4.91903 5.34099 5.34099C4.91903 5.76295 4.34674 6 3.75 6C3.15326 6 2.58097 5.76295 2.15901 5.34099C1.73705 4.91903 1.5 4.34674 1.5 3.75C1.5 3.15326 1.73705 2.58097 2.15901 2.15901C2.58097 1.73705 3.15326 1.5 3.75 1.5C4.34674 1.5 4.91903 1.73705 5.34099 2.15901C5.76295 2.58097 6 3.15326 6 3.75ZM11.826 9H11C10.057 9 9.586 9 9.293 9.293C9 9.586 9 10.057 9 11V19.5C9 20.443 9 20.914 9.293 21.207C9.586 21.5 10.057 21.5 11 21.5H11.5C12.443 21.5 12.914 21.5 13.207 21.207C13.5 20.914 13.5 20.443 13.5 19.5V16C13.5 14.343 14.028 13 15.588 13C16.368 13 17 13.672 17 14.5V19C17 19.943 17 20.414 17.293 20.707C17.586 21 18.057 21 19 21H19.499C20.441 21 20.913 21 21.206 20.707C21.498 20.414 21.499 19.943 21.499 19.001L21.5 13.5C21.5 11.014 19.136 9 16.797 9C15.465 9 14.277 9.652 13.5 10.673C13.5 10.043 13.5 9.728 13.363 9.494C13.2764 9.34593 13.1531 9.22265 13.005 9.136C12.771 8.999 12.456 8.999 11.826 8.999"/>
</mask>
<path d="M6 3.75H7H6ZM1.5 3.75H0.5H1.5ZM3.75 1.5V0.5V1.5ZM11.826 10C12.3783 10 12.826 9.55229 12.826 9C12.826 8.44772 12.3783 8 11.826 8V10ZM21.206 20.707L21.9131 21.4141L21.9143 21.4129L21.206 20.707ZM21.499 19.001L20.499 19.0008V19.001H21.499ZM21.5 13.5L22.5 13.5002V13.5H21.5ZM13.5 10.673H12.5C12.5 11.1021 12.7738 11.4834 13.1804 11.6206C13.5871 11.7577 14.0359 11.6201 14.2958 11.2786L13.5 10.673ZM13.363 9.494L12.4999 9.99908L12.5 9.99925L13.363 9.494ZM13.005 9.136L12.4998 9.99897L12.4999 9.99907L13.005 9.136ZM11.826 7.999C11.2737 7.999 10.826 8.44671 10.826 8.999C10.826 9.55128 11.2737 9.999 11.826 9.999V7.999ZM4 8H3.5V10H4V8ZM3.5 8C3.0568 8 2.62385 7.99787 2.26942 8.04555C1.88605 8.09713 1.44902 8.22277 1.08589 8.58589L2.50011 10.0001C2.42998 10.0702 2.37495 10.0494 2.53608 10.0277C2.72615 10.0021 3.0002 10 3.5 10V8ZM1.08589 8.58589C0.72277 8.94902 0.597127 9.38605 0.545553 9.76942C0.497873 10.1238 0.5 10.5568 0.5 11H2.5C2.5 10.5002 2.50213 10.2262 2.5277 10.0361C2.54937 9.87495 2.57023 9.92998 2.50011 10.0001L1.08589 8.58589ZM0.5 11V19.5H2.5V11H0.5ZM0.5 19.5C0.5 19.9432 0.497873 20.3762 0.545553 20.7306C0.597127 21.114 0.72277 21.551 1.08589 21.9141L2.50011 20.4999C2.57023 20.57 2.54937 20.625 2.5277 20.4639C2.50213 20.2738 2.5 19.9998 2.5 19.5H0.5ZM1.08589 21.9141C1.44902 22.2772 1.88605 22.4029 2.26942 22.4544C2.62385 22.5021 3.0568 22.5 3.5 22.5V20.5C3.0002 20.5 2.72615 20.4979 2.53608 20.4723C2.37495 20.4506 2.42998 20.4298 2.50011 20.4999L1.08589 21.9141ZM3.5 22.5H4V20.5H3.5V22.5ZM4 22.5C4.4432 22.5 4.87615 22.5021 5.23058 22.4544C5.61395 22.4029 6.05098 22.2772 6.41411 21.9141L4.99989 20.4999C5.07002 20.4298 5.12505 20.4506 4.96392 20.4723C4.77385 20.4979 4.4998 20.5 4 20.5V22.5ZM6.41411 21.9141C6.77723 21.551 6.90287 21.114 6.95445 20.7306C7.00213 20.3762 7 19.9432 7 19.5H5C5 19.9998 4.99787 20.2738 4.9723 20.4639C4.95063 20.625 4.92977 20.57 4.99989 20.4999L6.41411 21.9141ZM7 19.5V11H5V19.5H7ZM7 11C7 10.5568 7.00213 10.1238 6.95445 9.76942C6.90287 9.38605 6.77723 8.94902 6.41411 8.58589L4.99989 10.0001C4.92977 9.92998 4.95063 9.87495 4.9723 10.0361C4.99787 10.2262 5 10.5002 5 11H7ZM6.41411 8.58589C6.05098 8.22277 5.61395 8.09713 5.23058 8.04555C4.87615 7.99787 4.4432 8 4 8V10C4.4998 10 4.77385 10.0021 4.96392 10.0277C5.12505 10.0494 5.07002 10.0702 4.99989 10.0001L6.41411 8.58589ZM5 3.75C5 4.08152 4.8683 4.39946 4.63388 4.63388L6.0481 6.0481C6.65759 5.4386 7 4.61195 7 3.75H5ZM4.63388 4.63388C4.39946 4.8683 4.08152 5 3.75 5V7C4.61195 7 5.4386 6.65759 6.0481 6.0481L4.63388 4.63388ZM3.75 5C3.41848 5 3.10054 4.8683 2.86612 4.63388L1.4519 6.0481C2.0614 6.65759 2.88805 7 3.75 7V5ZM2.86612 4.63388C2.6317 4.39946 2.5 4.08152 2.5 3.75H0.5C0.5 4.61195 0.84241 5.4386 1.4519 6.0481L2.86612 4.63388ZM2.5 3.75C2.5 3.41848 2.6317 3.10054 2.86612 2.86612L1.4519 1.4519C0.84241 2.0614 0.5 2.88805 0.5 3.75H2.5ZM2.86612 2.86612C3.10054 2.6317 3.41848 2.5 3.75 2.5V0.5C2.88805 0.5 2.0614 0.84241 1.4519 1.4519L2.86612 2.86612ZM3.75 2.5C4.08152 2.5 4.39946 2.6317 4.63388 2.86612L6.0481 1.4519C5.4386 0.84241 4.61195 0.5 3.75 0.5V2.5ZM4.63388 2.86612C4.8683 3.10054 5 3.41848 5 3.75H7C7 2.88805 6.65759 2.0614 6.0481 1.4519L4.63388 2.86612ZM11.826 8H11V10H11.826V8ZM11 8C10.5568 8 10.1238 7.99787 9.76942 8.04555C9.38605 8.09713 8.94902 8.22277 8.58589 8.58589L10.0001 10.0001C9.92998 10.0702 9.87495 10.0494 10.0361 10.0277C10.2262 10.0021 10.5002 10 11 10V8ZM8.58589 8.58589C8.22277 8.94902 8.09713 9.38605 8.04555 9.76942C7.99787 10.1238 8 10.5568 8 11H10C10 10.5002 10.0021 10.2262 10.0277 10.0361C10.0494 9.87495 10.0702 9.92998 10.0001 10.0001L8.58589 8.58589ZM8 11V19.5H10V11H8ZM8 19.5C8 19.9432 7.99787 20.3762 8.04555 20.7306C8.09713 21.114 8.22277 21.551 8.58589 21.9141L10.0001 20.4999C10.0702 20.57 10.0494 20.625 10.0277 20.4639C10.0021 20.2738 10 19.9998 10 19.5H8ZM8.58589 21.9141C8.94902 22.2772 9.38605 22.4029 9.76942 22.4544C10.1238 22.5021 10.5568 22.5 11 22.5V20.5C10.5002 20.5 10.2262 20.4979 10.0361 20.4723C9.87495 20.4506 9.92998 20.4298 10.0001 20.4999L8.58589 21.9141ZM11 22.5H11.5V20.5H11V22.5ZM11.5 22.5C11.9432 22.5 12.3762 22.5021 12.7306 22.4544C13.114 22.4029 13.551 22.2772 13.9141 21.9141L12.4999 20.4999C12.57 20.4298 12.625 20.4506 12.4639 20.4723C12.2738 20.4979 11.9998 20.5 11.5 20.5V22.5ZM13.9141 21.9141C14.2772 21.551 14.4029 21.114 14.4544 20.7306C14.5021 20.3762 14.5 19.9432 14.5 19.5H12.5C12.5 19.9998 12.4979 20.2738 12.4723 20.4639C12.4506 20.625 12.4298 20.57 12.4999 20.4999L13.9141 21.9141ZM14.5 19.5V16H12.5V19.5H14.5ZM14.5 16C14.5 15.2476 14.625 14.711 14.8156 14.3946C14.9614 14.1526 15.1581 14 15.588 14V12C14.4579 12 13.6106 12.5189 13.1024 13.3627C12.639 14.132 12.5 15.0954 12.5 16H14.5ZM15.588 14C15.7594 14 16 14.1662 16 14.5H18C18 13.1778 16.9766 12 15.588 12V14ZM16 14.5V19H18V14.5H16ZM16 19C16 19.4432 15.9979 19.8762 16.0456 20.2306C16.0971 20.614 16.2228 21.051 16.5859 21.4141L18.0001 19.9999C18.0702 20.07 18.0494 20.125 18.0277 19.9639C18.0021 19.7738 18 19.4998 18 19H16ZM16.5859 21.4141C16.949 21.7772 17.386 21.9029 17.7694 21.9544C18.1238 22.0021 18.5568 22 19 22V20C18.5002 20 18.2262 19.9979 18.0361 19.9723C17.875 19.9506 17.93 19.9298 18.0001 19.9999L16.5859 21.4141ZM19 22H19.499V20H19V22ZM19.499 22C19.9418 22 20.3746 22.0021 20.7291 21.9545C21.1123 21.9029 21.5498 21.7774 21.9131 21.4141L20.4989 19.9999C20.5692 19.9296 20.6242 19.9506 20.4626 19.9723C20.2724 19.9979 19.9982 20 19.499 20V22ZM21.9143 21.4129C22.2758 21.0502 22.4013 20.6141 22.453 20.2312C22.5009 19.8768 22.499 19.4444 22.499 19.001H20.499C20.499 19.4996 20.4966 19.7737 20.471 19.9635C20.4492 20.1249 20.4282 20.0708 20.4977 20.0011L21.9143 21.4129ZM22.499 19.0012L22.5 13.5002L20.5 13.4998L20.499 19.0008L22.499 19.0012ZM22.5 13.5C22.5 10.3866 19.61 8 16.797 8V10C18.662 10 20.5 11.6414 20.5 13.5H22.5ZM16.797 8C15.1262 8 13.6537 8.81973 12.7042 10.0674L14.2958 11.2786C14.9003 10.4843 15.8038 10 16.797 10V8ZM14.5 10.673C14.5 10.3766 14.501 10.0867 14.4787 9.84368C14.4551 9.58663 14.3992 9.28469 14.226 8.98875L12.5 9.99925C12.4638 9.93731 12.4764 9.90987 12.4871 10.0263C12.499 10.1568 12.5 10.3394 12.5 10.673H14.5ZM14.2261 8.98892C14.0528 8.69279 13.8062 8.44622 13.5101 8.27292L12.4999 9.99907V9.99908L14.2261 8.98892ZM13.5102 8.27302C13.2143 8.09976 12.9124 8.04387 12.6553 8.0203C12.4123 7.99802 12.1224 7.999 11.826 7.999V9.999C12.1596 9.999 12.3422 9.99998 12.4727 10.0119C12.5891 10.0226 12.5617 10.0352 12.4998 9.99897L13.5102 8.27302Z" fill="#8C8B89" mask="url(#path-1-outside-1_801_491)"/>
</g>
</svg>
