<svg width="16" height="16" viewBox="0 0 16 16" fill="none" xmlns="http://www.w3.org/2000/svg">
<g id="Bold / Video, Audio, Sound / Microphone 2">
<g id="Vector">
<path d="M6.50002 5.16671C6.50002 4.89056 6.27616 4.66671 6.00002 4.66671H5.21066H4.199C4.444 2.78586 6.05239 1.33337 8.00002 1.33337C9.94765 1.33337 11.556 2.78586 11.801 4.66671H10.7894L9.00002 4.66671C8.72388 4.66671 8.50002 4.89057 8.50002 5.16671C8.50002 5.44285 8.72388 5.66671 9.00002 5.66671L10.8334 5.66671H11.8334V6.66671H10.8334H9.00002C8.72388 6.66671 8.50002 6.89057 8.50002 7.16671C8.50002 7.44285 8.72388 7.66671 9.00002 7.66671H10.7894H11.801C11.556 9.54755 9.94765 11 8.00002 11C6.05239 11 4.444 9.54755 4.199 7.66671H5.21066H6.00002C6.27616 7.66671 6.50002 7.44285 6.50002 7.16671C6.50002 6.89056 6.27616 6.66671 6.00002 6.66671H5.16669H4.16669V5.66671H5.16669H6.00002C6.27616 5.66671 6.50002 5.44285 6.50002 5.16671Z" fill="#8C8B89"/>
<path fill-rule="evenodd" clip-rule="evenodd" d="M2.66669 6.00004C2.94283 6.00004 3.16669 6.2239 3.16669 6.50004V7.16671C3.16669 9.83608 5.33064 12 8.00002 12C10.6694 12 12.8334 9.83608 12.8334 7.16671V6.50004C12.8334 6.2239 13.0572 6.00004 13.3334 6.00004C13.6095 6.00004 13.8334 6.2239 13.8334 6.50004V7.16671C13.8334 10.2199 11.4876 12.7253 8.50002 12.9789V14.5C8.50002 14.7762 8.27616 15 8.00002 15C7.72388 15 7.50002 14.7762 7.50002 14.5V12.9789C4.51242 12.7253 2.16669 10.2199 2.16669 7.16671V6.50004C2.16669 6.2239 2.39054 6.00004 2.66669 6.00004Z" fill="#8C8B89"/>
</g>
</g>
</svg>
