<svg width="11" height="12" viewBox="0 0 11 12" fill="none" xmlns="http://www.w3.org/2000/svg">
<g id="vuesax/linear/pen-add">
<g id="vuesax/linear/pen-add_2">
<g id="pen-add">
<g id="Group">
<g id="Group_2">
<path id="Vector" d="M9.71242 3.91337L8.25492 2.45587C7.70492 1.90587 6.94868 1.93338 6.57743 2.52463L5.76617 3.80796L8.36492 6.4067L9.64826 5.59547C10.2028 5.24256 10.2349 4.43129 9.71242 3.91337Z" stroke="#F3B61F" stroke-linecap="round" stroke-linejoin="round"/>
<path id="Vector_2" d="M8.36494 6.40125L8.47494 8.28958C8.58036 9.34374 8.21369 9.7104 7.21452 9.82957L3.21786 10.3017C2.37452 10.3979 1.76952 9.79294 1.87036 8.95419L2.31952 5.15918" stroke="#F3B61F" stroke-linecap="round" stroke-linejoin="round"/>
<path id="Vector_3" d="M5.76595 3.80725L4.96387 3.75684" stroke="#F3B61F" stroke-linecap="round" stroke-linejoin="round"/>
<path id="Vector_4" d="M2.42041 9.75215L3.87791 8.29004" stroke="#F3B61F" stroke-linecap="round" stroke-linejoin="round"/>
</g>
</g>
<path id="Vector_5" d="M5.04199 3.20605C5.04199 3.39397 5.01449 3.58189 4.96408 3.75606C4.91366 3.93939 4.84033 4.10897 4.74408 4.26939C4.63408 4.45272 4.49658 4.61772 4.33616 4.75522C3.97408 5.07606 3.50199 5.26855 2.97949 5.26855C2.74574 5.26855 2.52574 5.23189 2.31949 5.15856C1.85199 5.00273 1.46241 4.68189 1.21491 4.26939C1.02699 3.95772 0.916992 3.59105 0.916992 3.20605C0.916992 2.55522 1.21491 1.97313 1.69158 1.5973C2.04449 1.31313 2.49366 1.14355 2.97949 1.14355C4.12074 1.14355 5.04199 2.0648 5.04199 3.20605Z" stroke="#F3B61F" stroke-miterlimit="10" stroke-linecap="round" stroke-linejoin="round"/>
<g id="Group_3">
<path id="Vector_6" d="M2.98834 3.97676V2.43677" stroke="#F3B61F" stroke-miterlimit="10" stroke-linecap="round" stroke-linejoin="round"/>
<path id="Vector_7" d="M3.74001 3.2063H2.20001" stroke="#F3B61F" stroke-miterlimit="10" stroke-linecap="round" stroke-linejoin="round"/>
</g>
</g>
</g>
</g>
</svg>
