<svg width="20" height="20" viewBox="0 0 20 20" fill="none" xmlns="http://www.w3.org/2000/svg">
<g id="Bold / Messages, Conversation / Chat Round Line">
<path id="Vector" fill-rule="evenodd" clip-rule="evenodd" d="M10 18.3333C14.6024 18.3333 18.3334 14.6023 18.3334 9.99996C18.3334 5.39759 14.6024 1.66663 10 1.66663C5.39765 1.66663 1.66669 5.39759 1.66669 9.99996C1.66669 11.333 1.9797 12.593 2.53624 13.7104C2.68413 14.0073 2.73336 14.3467 2.64762 14.6671L2.15128 16.5222C1.93582 17.3274 2.67253 18.0642 3.47781 17.8487L5.33284 17.3524C5.6533 17.2666 5.99269 17.3158 6.28963 17.4637C7.40699 18.0203 8.66695 18.3333 10 18.3333ZM6.66669 11.0416C6.32151 11.0416 6.04169 11.3214 6.04169 11.6666C6.04169 12.0118 6.32151 12.2916 6.66669 12.2916H11.25C11.5952 12.2916 11.875 12.0118 11.875 11.6666C11.875 11.3214 11.5952 11.0416 11.25 11.0416H6.66669ZM6.04169 8.74996C6.04169 8.40478 6.32151 8.12496 6.66669 8.12496H13.3334C13.6785 8.12496 13.9584 8.40478 13.9584 8.74996C13.9584 9.09514 13.6785 9.37496 13.3334 9.37496H6.66669C6.32151 9.37496 6.04169 9.09514 6.04169 8.74996Z" fill="url(#paint0_linear_801_495)"/>
</g>
<defs>
<linearGradient id="paint0_linear_801_495" x1="1.66669" y1="9.99996" x2="18.3334" y2="9.99996" gradientUnits="userSpaceOnUse">
<stop stop-color="#F3B61F"/>
<stop offset="1" stop-color="#813405"/>
</linearGradient>
</defs>
</svg>
