<svg width="17" height="17" viewBox="0 0 17 17" fill="none" xmlns="http://www.w3.org/2000/svg">
<path d="M7.53261 14.8579L11.5783 12.835C15.1126 11.0679 16.8797 10.1843 16.8797 8.78511C16.8797 7.38591 15.1126 6.50234 11.5783 4.73521L7.53262 2.71236C4.68013 1.28611 3.25388 0.572986 2.42703 0.791885C1.64044 1.00013 1.02611 1.61446 0.817863 2.40105C0.598964 3.2279 1.31209 4.65415 2.73833 7.50664C2.91509 7.86015 3.27647 8.09533 3.67171 8.09717L10.1301 8.12723C10.4934 8.12892 10.7866 8.42483 10.7849 8.78818C10.7832 9.15152 10.4873 9.44469 10.124 9.443L3.76987 9.41343C3.33424 9.4114 2.93315 9.67395 2.73833 10.0636C1.31209 12.9161 0.598964 14.3423 0.817861 15.1692C1.0261 15.9558 1.64044 16.5701 2.42703 16.7783C3.25388 16.9972 4.68013 16.2841 7.53261 14.8579Z" fill="#E4E4E4"/>
</svg>
