<svg width="30" height="30" viewBox="0 0 30 30" fill="none" xmlns="http://www.w3.org/2000/svg">
<g id="Bold / Messages, Conversation / Plain" clip-path="url(#clip0_801_482)">
<path id="Vector" d="M16.7475 21.0704L20.7932 19.0475C24.3274 17.2804 26.0946 16.3968 26.0946 14.9976C26.0946 13.5984 24.3274 12.7149 20.7932 10.9477L16.7475 8.92488C13.895 7.49863 12.4687 6.78551 11.6419 7.00441C10.8553 7.21265 10.2409 7.82699 10.0327 8.61358C9.81381 9.44042 10.5269 10.8667 11.9532 13.7192C12.1299 14.0727 12.4913 14.3079 12.8865 14.3097L19.3449 14.3397C19.7083 14.3414 20.0015 14.6374 19.9998 15.0007C19.9981 15.364 19.7022 15.6572 19.3388 15.6555L12.9847 15.626C12.5491 15.6239 12.148 15.8865 11.9532 16.2761C10.5269 19.1286 9.81381 20.5549 10.0327 21.3817C10.2409 22.1683 10.8553 22.7826 11.6419 22.9909C12.4687 23.2098 13.895 22.4966 16.7475 21.0704Z" fill="#E4E4E4"/>
</g>
<defs>
<clipPath id="clip0_801_482">
<rect width="20" height="20" fill="white" transform="translate(15 0.855469) rotate(45)"/>
</clipPath>
</defs>
</svg>
